# xmcd CD database file
#
# Track frame offsets:
#	150
#	11839
#	32331
#	45698
#	58893
#	78179
#	97012
#	116337
#	134182
#	146746
#	160030
#	173445
#	186528
#	199345
#	212829
#
# Disc length: 2995 seconds
#
# Revision: 1
# Processed by: cddbd v1.5.1PL0 Copyright (c) Steve Scherf et al.
# Submitted via: CDex 1.51
#
DISCID=d80bb10f
DTITLE=Jack Teagarden - Makin' Friends
DYEAR=1928
DGENRE=Jazz
TTITLE0=Nobody's Sweetheart Now
TTITLE1=Serenade To A Shylock
TTITLE2=Jack Hits The Road
TTITLE3=Casanova's Lament
TTITLE4=St. James Infirmary
TTITLE5=The World Is Waiting For The Sunrise
TTITLE6=The Big Eight Blues
TTITLE7=Shine
TTITLE8=Clambake In B Flat
TTITLE9=Casanova's Lament
TTITLE10=In My Solitude
TTITLE11=I'm Sorry I Made You Cry
TTITLE12=Mighty Lak' A Rose
TTITLE13=Stars Fell On Alabama
TTITLE14='deed I Do
EXTD=YEAR: 1928
EXTT0=
EXTT1=
EXTT2=
EXTT3=
EXTT4=
EXTT5=
EXTT6=
EXTT7=
EXTT8=
EXTT9=
EXTT10=
EXTT11=
EXTT12=
EXTT13=
EXTT14=
PLAYORDER=
